REM DIRINDEX 1\3,1\2\4,1\2\5,1\2\6
REM DIRNAME cjc137,folder01,folder02,folder03,folder04,folder05
TITLE ""
FILE "098.mp3" MP3
  TRACK 01 AUDIO
    TITLE "4:cjc137_4035"
    INDEX 01 00:00:00
  TRACK 02 AUDIO
    TITLE "0:"
    INDEX 01 00:01:32
  TRACK 03 AUDIO
    TITLE "6:cjc137_4036"
    INDEX 01 00:01:44
  TRACK 04 AUDIO
    TITLE "0:"
    INDEX 01 00:02:51
  TRACK 05 AUDIO
    TITLE "5:cjc137_4037"
    INDEX 01 00:02:57
  TRACK 06 AUDIO
    TITLE "0:"
    INDEX 01 00:04:13
  TRACK 07 AUDIO
    TITLE "4:cjc137_4038"
    INDEX 01 00:05:28
  TRACK 08 AUDIO
    TITLE "0:"
    INDEX 01 00:06:41
  TRACK 09 AUDIO
    TITLE "6:cjc137_4039"
    INDEX 01 00:06:47
  TRACK 10 AUDIO
    TITLE "0:"
    INDEX 01 00:07:51
  TRACK 11 AUDIO
    TITLE "5:cjc137_4040"
    INDEX 01 00:07:56
  TRACK 12 AUDIO
    TITLE "0:"
    INDEX 01 00:08:72
  TRACK 13 AUDIO
    TITLE "4:cjc137_4041"
    INDEX 01 00:10:04
  TRACK 14 AUDIO
    TITLE "0:"
    INDEX 01 00:11:50
  TRACK 15 AUDIO
    TITLE "6:cjc137_4042"
    INDEX 01 00:11:62
  TRACK 16 AUDIO
    TITLE "0:"
    INDEX 01 00:13:02
  TRACK 17 AUDIO
    TITLE "5:cjc137_4043"
    INDEX 01 00:13:10
  TRACK 18 AUDIO
    TITLE "0:"
    INDEX 01 00:14:54
  TRACK 19 AUDIO
    TITLE "4:cjc137_4044"
    INDEX 01 00:15:66
  TRACK 20 AUDIO
    TITLE "0:"
    INDEX 01 00:17:27
  TRACK 21 AUDIO
    TITLE "6:cjc137_4045"
    INDEX 01 00:17:33
  TRACK 22 AUDIO
    TITLE "0:"
    INDEX 01 00:18:52
  TRACK 23 AUDIO
    TITLE "5:cjc137_4046"
    INDEX 01 00:18:60
  TRACK 24 AUDIO
    TITLE "0:"
    INDEX 01 00:20:20
  TRACK 25 AUDIO
    TITLE "4:cjc137_4047"
    INDEX 01 00:21:29
  TRACK 26 AUDIO
    TITLE "0:"
    INDEX 01 00:22:52
  TRACK 27 AUDIO
    TITLE "6:cjc137_4048"
    INDEX 01 00:22:62
  TRACK 28 AUDIO
    TITLE "0:"
    INDEX 01 00:24:02
  TRACK 29 AUDIO
    TITLE "5:cjc137_4049"
    INDEX 01 00:24:10
  TRACK 30 AUDIO
    TITLE "0:"
    INDEX 01 00:25:35
  TRACK 31 AUDIO
    TITLE "4:cjc137_4050"
    INDEX 01 00:26:44
  TRACK 32 AUDIO
    TITLE "0:"
    INDEX 01 00:27:65
  TRACK 33 AUDIO
    TITLE "6:cjc137_4051"
    INDEX 01 00:27:73
  TRACK 34 AUDIO
    TITLE "0:"
    INDEX 01 00:28:55
  TRACK 35 AUDIO
    TITLE "5:cjc137_4052"
    INDEX 01 00:28:64
  TRACK 36 AUDIO
    TITLE "0:"
    INDEX 01 00:30:10
  TRACK 37 AUDIO
    TITLE "4:cjc137_4053"
    INDEX 01 00:31:18
  TRACK 38 AUDIO
    TITLE "0:"
    INDEX 01 00:32:29
  TRACK 39 AUDIO
    TITLE "6:cjc137_4054"
    INDEX 01 00:32:35
  TRACK 40 AUDIO
    TITLE "0:"
    INDEX 01 00:33:34
  TRACK 41 AUDIO
    TITLE "5:cjc137_4055"
    INDEX 01 00:33:42
  TRACK 42 AUDIO
    TITLE "0:"
    INDEX 01 00:34:53
  TRACK 43 AUDIO
    TITLE "4:cjc137_4056"
    INDEX 01 00:35:61
  TRACK 44 AUDIO
    TITLE "0:"
    INDEX 01 00:36:62
  TRACK 45 AUDIO
    TITLE "6:cjc137_4057"
    INDEX 01 00:36:72
  TRACK 46 AUDIO
    TITLE "0:"
    INDEX 01 00:38:02
  TRACK 47 AUDIO
    TITLE "5:cjc137_4058"
    INDEX 01 00:38:08
  TRACK 48 AUDIO
    TITLE "0:"
    INDEX 01 00:39:07
  TRACK 49 AUDIO
    TITLE "4:cjc137_4059"
    INDEX 01 00:40:19
  TRACK 50 AUDIO
    TITLE "0:"
    INDEX 01 00:41:49
  TRACK 51 AUDIO
    TITLE "6:cjc137_4060"
    INDEX 01 00:41:55
  TRACK 52 AUDIO
    TITLE "0:"
    INDEX 01 00:42:70
  TRACK 53 AUDIO
    TITLE "5:cjc137_4061"
    INDEX 01 00:43:03
  TRACK 54 AUDIO
    TITLE "0:"
    INDEX 01 00:44:32
  TRACK 55 AUDIO
    TITLE "4:cjc137_4062"
    INDEX 01 00:45:41
  TRACK 56 AUDIO
    TITLE "0:"
    INDEX 01 00:46:58
  TRACK 57 AUDIO
    TITLE "6:cjc137_4063"
    INDEX 01 00:46:70
  TRACK 58 AUDIO
    TITLE "0:"
    INDEX 01 00:48:28
  TRACK 59 AUDIO
    TITLE "5:cjc137_4064"
    INDEX 01 00:48:36
  TRACK 60 AUDIO
    TITLE "0:"
    INDEX 01 00:49:53
  TRACK 61 AUDIO
    TITLE "4:cjc137_4065"
    INDEX 01 00:50:66
  TRACK 62 AUDIO
    TITLE "0:"
    INDEX 01 00:52:08
  TRACK 63 AUDIO
    TITLE "6:cjc137_4066"
    INDEX 01 00:52:14
  TRACK 64 AUDIO
    TITLE "0:"
    INDEX 01 00:53:35
  TRACK 65 AUDIO
    TITLE "5:cjc137_4067"
    INDEX 01 00:53:43
  TRACK 66 AUDIO
    TITLE "0:"
    INDEX 01 00:54:58
  TRACK 67 AUDIO
    TITLE "4:cjc137_4068"
    INDEX 01 00:55:67
  TRACK 68 AUDIO
    TITLE "0:"
    INDEX 01 00:57:25
  TRACK 69 AUDIO
    TITLE "6:cjc137_4069"
    INDEX 01 00:57:33
  TRACK 70 AUDIO
    TITLE "0:"
    INDEX 01 00:58:52
  TRACK 71 AUDIO
    TITLE "5:cjc137_4070"
    INDEX 01 00:58:58
  TRACK 72 AUDIO
    TITLE "0:"
    INDEX 01 01:00:17
  TRACK 73 AUDIO
    TITLE "4:cjc137_4071"
    INDEX 01 01:01:27
  TRACK 74 AUDIO
    TITLE "0:"
    INDEX 01 01:02:71
  TRACK 75 AUDIO
    TITLE "6:cjc137_4072"
    INDEX 01 01:03:02
  TRACK 76 AUDIO
    TITLE "0:"
    INDEX 01 01:04:01
  TRACK 77 AUDIO
    TITLE "5:cjc137_4073"
    INDEX 01 01:04:07
  TRACK 78 AUDIO
    TITLE "0:"
    INDEX 01 01:05:50
  TRACK 79 AUDIO
    TITLE "4:cjc137_4074"
    INDEX 01 01:06:59
  TRACK 80 AUDIO
    TITLE "0:"
    INDEX 01 01:08:01
  TRACK 81 AUDIO
    TITLE "6:cjc137_4075"
    INDEX 01 01:08:09
  TRACK 82 AUDIO
    TITLE "0:"
    INDEX 01 01:09:05
  TRACK 83 AUDIO
    TITLE "5:cjc137_4076"
    INDEX 01 01:09:12
  TRACK 84 AUDIO
    TITLE "0:"
    INDEX 01 01:10:31
